<svg width="1106" height="551" viewBox="0 0 1106 551" fill="none" xmlns="http://www.w3.org/2000/svg">
<g clip-path="url(#clip0_11_24)">
<path d="M449.313 424.936H442.329V397.032C442.329 392.816 441.927 389.337 441.815 386.883C441.503 380.927 436.684 375.797 429.499 375.797C424.679 375.797 419.86 378.161 416.78 382.154C412.876 387.173 412.162 393.641 412.162 401.85V424.936H405.178V370.444H412.162V379.79C416.981 372.808 423.05 369.016 430.838 369.016C439.16 369.016 445.095 373.321 448.085 382.154C452.905 373.433 460.09 369.016 468.1 369.016C479.39 369.016 486.686 377.113 486.686 392.615V424.936H479.703V395.181C479.703 391.188 479.189 387.998 479.078 385.946C478.765 381.128 474.147 375.797 466.761 375.797C459.978 375.797 454.043 379.901 451.254 386.883C449.513 391.299 449.29 396.117 449.29 401.158V424.959L449.313 424.936Z" fill="black"/>
<path d="M553.089 370.444H559.962V424.936H553.089V415.59C547.132 422.773 539.635 426.252 531.133 426.252C515.224 426.252 503.22 413.025 503.22 397.523C503.22 382.02 515.537 368.994 531.357 368.994C540.192 368.994 547.667 372.786 553.112 380.392V370.444H553.089ZM510.383 397.724C510.383 409.523 519.62 419.895 531.825 419.895C543.004 419.895 553.58 411.486 553.58 397.924C553.58 385.299 544.142 375.752 531.914 375.752C519.687 375.752 510.36 386.013 510.36 397.701L510.383 397.724Z" fill="black"/>
<path d="M584.483 378.34C588.589 372.384 593.007 368.994 598.54 368.994C601.731 368.994 603.36 370.02 604.81 370.845L601.106 376.801C600.281 376.399 598.942 375.775 597.402 375.775C592.271 375.775 587.652 380.191 585.599 387.686C584.684 391.166 584.461 396.809 584.461 404.214V424.936H577.076V370.444H584.461V378.34H584.483Z" fill="black"/>
<path d="M623.174 353.715C623.174 356.904 620.496 359.559 617.328 359.559C614.159 359.559 611.571 356.882 611.571 353.715C611.571 350.547 614.249 347.96 617.328 347.96C620.407 347.96 623.174 350.525 623.174 353.715ZM613.936 370.444H620.92V424.936H613.936V370.444Z" fill="black"/>
<path d="M644.125 398.259C644.438 410.772 652.961 419.917 664.653 419.917C676.345 419.917 681.477 413.449 685.493 406.891L691.339 409.969C685.806 420.854 677.282 426.275 665.367 426.275C647.294 426.275 636.941 412.423 636.941 397.857C636.941 383.292 647.919 369.016 664.966 369.016C680.473 369.016 692.99 380.191 693.191 398.259H644.125ZM685.493 392.08C682.615 380.793 674.515 375.775 665.077 375.775C655.639 375.775 648.03 381.017 644.862 392.08H685.516H685.493Z" fill="black"/>
<path d="M741.833 349.41H748.817V424.936H741.833V349.41Z" fill="black"/>
<path d="M814.908 370.444H821.78V424.936H814.908V415.59C808.95 422.773 801.453 426.252 792.929 426.252C777.02 426.252 765.016 413.025 765.016 397.523C765.016 382.02 777.333 368.994 793.153 368.994C801.988 368.994 809.463 372.786 814.908 380.392V370.444ZM772.201 397.724C772.201 409.523 781.438 419.895 793.666 419.895C804.844 419.895 815.421 411.486 815.421 397.924C815.421 385.299 805.982 375.752 793.755 375.752C781.528 375.752 772.201 386.013 772.201 397.701V397.724Z" fill="black"/>
<path d="M881.31 370.444H888.696V398.66C888.696 417.04 880.373 426.275 864.777 426.275C849.18 426.275 840.746 417.04 840.746 398.66V370.444H848.131V397.032C848.131 402.787 848.131 407.493 849.671 410.795C852.237 416.326 857.882 419.516 864.754 419.516C869.775 419.516 874.192 417.665 877.071 414.698C881.377 410.081 881.288 404.839 881.288 397.054V370.466L881.31 370.444Z" fill="black"/>
<path d="M912.816 378.34C916.922 372.384 921.34 368.994 926.873 368.994C930.064 368.994 931.693 370.02 933.143 370.845L929.439 376.801C928.613 376.399 927.275 375.775 925.735 375.775C920.603 375.775 915.984 380.191 913.932 387.686C913.017 391.166 912.794 396.809 912.794 404.214V424.936H905.408V370.444H912.794V378.34H912.816Z" fill="black"/>
<path d="M947.401 398.259C947.713 410.772 956.237 419.917 967.929 419.917C979.62 419.917 984.752 413.449 988.769 406.891L994.615 409.969C989.081 420.854 980.558 426.275 968.643 426.275C950.569 426.275 940.216 412.423 940.216 397.857C940.216 383.292 951.194 369.016 968.241 369.016C983.748 369.016 996.266 380.191 996.467 398.259H947.401ZM988.769 392.08C985.89 380.793 977.791 375.775 968.352 375.775C958.914 375.775 951.305 381.017 948.137 392.08H988.791H988.769Z" fill="black"/>
<path d="M1020.59 380.191C1026.23 372.808 1033.01 369.016 1041.03 369.016C1052.94 369.016 1061.24 377.225 1061.24 394.355V424.936H1054.26V395.27C1054.26 382.444 1050.26 375.373 1039.69 375.373C1033.84 375.373 1029.02 377.938 1025.32 382.756C1021.21 388.087 1020.59 393.418 1020.59 402.051V424.936H1013.6V370.444H1020.59V380.191Z" fill="black"/>
<path d="M1086.59 350.123H1093.57V370.444H1104.75V376.6H1093.57V424.936H1086.59V376.6H1076.95V370.444H1086.59V350.123Z" fill="black"/>
<path d="M452.704 489.154H459.576V543.647H452.704V534.301C446.747 541.483 439.249 544.963 430.748 544.963C414.839 544.963 402.835 531.736 402.835 516.233C402.835 500.731 415.152 487.704 430.971 487.704C439.807 487.704 447.282 491.496 452.726 499.103V489.154H452.704ZM409.997 516.456C409.997 528.256 419.235 538.628 431.44 538.628C442.619 538.628 453.195 530.219 453.195 516.657C453.195 504.032 443.757 494.485 431.529 494.485C419.302 494.485 409.975 504.746 409.975 516.434L409.997 516.456Z" fill="black"/>
<path d="M489.23 497.073C493.336 491.117 497.754 487.727 503.287 487.727C506.478 487.727 508.107 488.753 509.557 489.578L505.853 495.534C505.028 495.132 503.689 494.507 502.149 494.507C497.017 494.507 492.399 498.924 490.346 506.419C489.431 509.898 489.208 515.542 489.208 522.947V543.669H481.822V489.176H489.208V497.073H489.23Z" fill="black"/>
<path d="M577.009 532.672C571.676 540.769 562.438 544.985 551.438 544.985C533.476 544.985 521.472 532.048 521.472 516.858C521.472 500.842 533.989 487.704 551.951 487.704C562.416 487.704 571.966 492.009 576.986 500.441L571.341 503.921C566.522 497.563 559.85 494.485 551.639 494.485C537.783 494.485 528.657 504.634 528.657 516.345C528.657 528.055 537.693 538.606 551.75 538.606C559.649 538.606 566.231 535.416 571.363 529.059L577.009 532.65V532.672Z" fill="black"/>
<path d="M599.678 468.12H606.662V498.902C612.307 491.518 618.979 487.726 627.101 487.726C638.904 487.726 647.227 496.046 647.227 512.352V543.647H640.243V513.98C640.243 501.154 636.338 494.084 625.762 494.084C619.916 494.084 615.074 496.649 611.393 501.467C607.399 506.709 606.662 512.04 606.662 520.761V543.647H599.678V468.12Z" fill="black"/>
<path d="M679.826 472.447C679.826 475.637 677.148 478.291 673.98 478.291C670.812 478.291 668.223 475.615 668.223 472.447C668.223 469.28 670.901 466.692 673.98 466.692C677.059 466.692 679.826 469.258 679.826 472.447ZM670.588 489.154H677.572V543.647H670.588V489.154Z" fill="black"/>
<path d="M707.538 468.856H714.522V489.176H725.701V495.333H714.522V543.669H707.538V495.333H697.899V489.176H707.538V468.856Z" fill="black"/>
<path d="M749.933 516.969C750.245 529.483 758.768 538.628 770.46 538.628C782.152 538.628 787.284 532.159 791.301 525.601L797.147 528.68C791.613 539.565 783.089 544.985 771.174 544.985C753.101 544.985 742.748 531.133 742.748 516.568C742.748 502.002 753.726 487.727 770.773 487.727C786.28 487.727 798.798 498.902 798.998 516.969H749.933ZM791.301 510.813C788.422 499.526 780.323 494.507 770.884 494.507C761.446 494.507 753.837 499.749 750.669 510.813H791.323H791.301Z" fill="black"/>
<path d="M874.237 532.672C868.904 540.769 859.667 544.985 848.667 544.985C830.705 544.985 818.701 532.048 818.701 516.858C818.701 500.842 831.218 487.704 849.18 487.704C859.645 487.704 869.194 492.009 874.237 500.441L868.592 503.921C863.772 497.563 857.101 494.485 848.89 494.485C835.034 494.485 825.885 504.634 825.885 516.345C825.885 528.055 834.922 538.606 848.979 538.606C856.878 538.606 863.46 535.416 868.592 529.059L874.237 532.65V532.672Z" fill="black"/>
<path d="M903.177 468.856H910.161V489.176H921.339V495.333H910.161V543.669H903.177V495.333H893.538V489.176H903.177V468.856Z" fill="black"/>
<path d="M980.558 489.154H987.943V517.371C987.943 535.75 979.62 544.985 964.024 544.985C948.427 544.985 939.993 535.75 939.993 517.371V489.154H947.378V515.742C947.378 521.497 947.378 526.204 948.918 529.505C951.484 535.037 957.129 538.226 964.001 538.226C969.022 538.226 973.44 536.375 976.318 533.408C980.624 528.791 980.535 523.549 980.535 515.765V489.176L980.558 489.154Z" fill="black"/>
<path d="M1017.2 497.073C1021.3 491.117 1025.72 487.727 1031.25 487.727C1034.44 487.727 1036.07 488.753 1037.52 489.578L1033.82 495.534C1032.99 495.132 1031.65 494.507 1030.11 494.507C1024.98 494.507 1020.36 498.924 1018.31 506.419C1017.4 509.898 1017.17 515.542 1017.17 522.947V543.669H1009.79V489.176H1017.17V497.073H1017.2Z" fill="black"/>
<path d="M1056.93 516.969C1057.25 529.483 1065.77 538.628 1077.46 538.628C1089.15 538.628 1094.29 532.159 1098.3 525.601L1104.15 528.68C1098.61 539.565 1090.09 544.985 1078.18 544.985C1060.1 544.985 1049.75 531.133 1049.75 516.568C1049.75 502.002 1060.73 487.727 1077.77 487.727C1093.28 487.727 1105.8 498.902 1106 516.969H1056.93ZM1098.3 510.813C1095.42 499.526 1087.32 494.507 1077.89 494.507C1068.45 494.507 1060.84 499.749 1057.67 510.813H1098.32H1098.3Z" fill="black"/>
<path d="M186.981 2H162.236L0 374.436V444.052L27.7794 381.15H267.82L311.397 482.217C312.914 487.905 316.194 493.816 313.517 506.597C309.813 524.263 288.058 523.549 288.058 523.549H253.763V549H344.242V362.771L186.981 2ZM40.2969 351.462L148.201 108.264L254.232 351.462H40.2969Z" fill="#1D1D1B"/>
<path d="M33.4692 523.549H0V549H33.4692V523.549Z" fill="#1D1D1B"/>
</g>
<defs>
<clipPath id="clip0_11_24">
<rect width="1106" height="547" fill="white" transform="translate(0 2)"/>
</clipPath>
</defs>
</svg>
